<?xml version="1.0" encoding="utf-8"?>
<!-- Generator: Adobe Illustrator 16.0.0, SVG Export Plug-In . SVG Version: 6.00 Build 0)  -->
<!DOCTYPE svg PUBLIC "-//W3C//DTD SVG 1.1//EN" "http://www.w3.org/Graphics/SVG/1.1/DTD/svg11.dtd">
<svg version="1.1" id="Calque_1" xmlns="http://www.w3.org/2000/svg" xmlns:xlink="http://www.w3.org/1999/xlink" x="0px" y="0px"
	 width="75px" height="75px" viewBox="0 0 75 75" enable-background="new 0 0 75 75" xml:space="preserve">
<g>
	<g>
		<path fill="#FFFFFF" d="M37.449,1.113c-20.028,0-36.324,16.296-36.324,36.325c0,20.028,16.296,36.325,36.324,36.325
			s36.326-16.297,36.326-36.325C73.774,17.409,57.48,1.113,37.449,1.113z M46.483,38.717h-5.911c0,9.441,0,21.063,0,21.063h-8.756
			c0,0,0-11.508,0-21.063h-4.164v-7.444h4.164v-4.816c0-3.448,1.639-8.838,8.838-8.838l6.487,0.026v7.226c0,0-3.94,0-4.707,0
			c-0.77,0-1.859,0.383-1.859,2.028v4.376h6.675L46.483,38.717z"/>
	</g>
</g>
</svg>
