<?xml version="1.0" encoding="utf-8"?>
<!-- Generator: Adobe Illustrator 16.0.0, SVG Export Plug-In . SVG Version: 6.00 Build 0)  -->
<!DOCTYPE svg PUBLIC "-//W3C//DTD SVG 1.1//EN" "http://www.w3.org/Graphics/SVG/1.1/DTD/svg11.dtd">
<svg version="1.1" id="Calque_1" xmlns="http://www.w3.org/2000/svg" xmlns:xlink="http://www.w3.org/1999/xlink" x="0px" y="0px"
	 width="75px" height="75px" viewBox="0 0 75 75" enable-background="new 0 0 75 75" xml:space="preserve">
<path fill="#FFFFFF" d="M37.416,1.125c-20.043,0-36.291,16.248-36.291,36.293c0,20.043,16.248,36.289,36.291,36.289
	s36.291-16.246,36.291-36.289C73.707,17.373,57.459,1.125,37.416,1.125z M46.53,37.418c0,9.106-7.41,16.515-16.516,16.515
	c-9.109,0-16.517-7.408-16.517-16.515c0-9.108,7.408-16.517,16.517-16.517c3.674,0,7.155,1.183,10.066,3.421l-3.834,4.988
	c-1.803-1.386-3.958-2.118-6.232-2.118c-5.639,0-10.226,4.587-10.226,10.224c0,5.638,4.587,10.226,10.226,10.226
	c4.541,0,8.399-2.977,9.729-7.079h-9.729v-6.292H46.53V37.418z M63.919,39.474h-4.73v4.73h-4.116v-4.73h-4.729V35.36h4.729v-4.732
	h4.116v4.732h4.73V39.474z"/>
</svg>
