<?xml version="1.0" encoding="utf-8"?>
<!-- Generator: Adobe Illustrator 16.0.0, SVG Export Plug-In . SVG Version: 6.00 Build 0)  -->
<!DOCTYPE svg PUBLIC "-//W3C//DTD SVG 1.1//EN" "http://www.w3.org/Graphics/SVG/1.1/DTD/svg11.dtd">
<svg version="1.1" id="Calque_1" xmlns="http://www.w3.org/2000/svg" xmlns:xlink="http://www.w3.org/1999/xlink" x="0px" y="0px"
	 width="75px" height="75px" viewBox="0 0 75 75" enable-background="new 0 0 75 75" xml:space="preserve">
<g enable-background="new    ">
	<g>
		<defs>
			<rect id="SVGID_1_" x="-0.251" y="0.5" width="75.25" height="75.25"/>
		</defs>
		<clipPath id="SVGID_2_">
			<use xlink:href="#SVGID_1_"  overflow="visible"/>
		</clipPath>
		<g clip-path="url(#SVGID_2_)">
			<defs>
				<path id="SVGID_3_" d="M37.468,73.372c-19.779,0-35.812-16.035-35.812-35.812c0-19.781,16.033-35.814,35.812-35.814
					c19.779,0,35.814,16.033,35.814,35.814C73.282,57.337,57.247,73.372,37.468,73.372z M37.468,75.521
					c20.964,0,37.962-16.996,37.962-37.96c0-20.968-16.998-37.964-37.962-37.964c-20.966,0-37.962,16.996-37.962,37.964
					C-0.494,58.524,16.502,75.521,37.468,75.521z M-43.495-43.404H118.43v161.924H-43.495V-43.404z"/>
			</defs>
			<clipPath id="SVGID_4_">
				<use xlink:href="#SVGID_3_"  overflow="visible"/>
			</clipPath>
			<g clip-path="url(#SVGID_4_)">
				<defs>
					<circle id="SVGID_5_" cx="37.468" cy="37.558" r="36.886"/>
				</defs>
				<clipPath id="SVGID_6_">
					<use xlink:href="#SVGID_5_"  overflow="visible"/>
				</clipPath>
				<g clip-path="url(#SVGID_6_)">
					<defs>
						<rect id="SVGID_7_" x="-0.251" y="0.5" width="75.25" height="75.25"/>
					</defs>
					<clipPath id="SVGID_8_">
						<use xlink:href="#SVGID_7_"  overflow="visible"/>
					</clipPath>
					
						<circle clip-path="url(#SVGID_8_)" fill-rule="evenodd" clip-rule="evenodd" fill="#FFFFFF" cx="37.468" cy="37.558" r="36.886"/>
				</g>
			</g>
		</g>
		<g clip-path="url(#SVGID_2_)">
			<defs>
				<circle id="SVGID_9_" cx="37.468" cy="37.558" r="36.886"/>
			</defs>
			<clipPath id="SVGID_10_">
				<use xlink:href="#SVGID_9_"  overflow="visible"/>
			</clipPath>
			<g clip-path="url(#SVGID_10_)">
				<defs>
					<rect id="SVGID_11_" x="-0.251" y="0.5" width="75.25" height="75.25"/>
				</defs>
				<clipPath id="SVGID_12_">
					<use xlink:href="#SVGID_11_"  overflow="visible"/>
				</clipPath>
				
					<circle clip-path="url(#SVGID_12_)" fill="none" stroke="#9B9B9B" stroke-width="2" stroke-miterlimit="10" cx="37.468" cy="37.558" r="36.886"/>
			</g>
		</g>
		<g clip-path="url(#SVGID_2_)">
			<defs>
				<path id="SVGID_13_" d="M44.025,29.183H32.457c-0.496,0-0.971,0.204-1.307,0.561s-0.507,0.837-0.469,1.323l0.822,10.49
					c0.035,0.447,0.244,0.863,0.583,1.164l1.873,1.662v10.607c0,0.965,0.796,1.748,1.778,1.748h0.78c0.83,0,1.528-0.557,1.725-1.314
					c0.198,0.758,0.894,1.314,1.725,1.314h0.779c0.982,0,1.779-0.783,1.779-1.748V44.382l1.871-1.662
					c0.34-0.301,0.551-0.717,0.583-1.164l0.822-10.49c0.037-0.485-0.133-0.966-0.47-1.323
					C44.997,29.386,44.521,29.183,44.025,29.183z"/>
			</defs>
			<clipPath id="SVGID_14_">
				<use xlink:href="#SVGID_13_"  overflow="visible"/>
			</clipPath>
			<g clip-path="url(#SVGID_14_)">
				<defs>
					<rect id="SVGID_15_" x="-0.251" y="0.5" width="75.25" height="75.25"/>
				</defs>
				<clipPath id="SVGID_16_">
					<use xlink:href="#SVGID_15_"  overflow="visible"/>
				</clipPath>
				<rect x="19.925" y="18.432" clip-path="url(#SVGID_16_)" fill="#9B9B9B" width="36.631" height="49.055"/>
			</g>
		</g>
		<g clip-path="url(#SVGID_2_)">
			<defs>
				<path id="SVGID_17_" d="M38.246,28.626c2.882,0,5.218-2.295,5.218-5.125c0-2.831-2.336-5.128-5.218-5.128
					c-2.879,0-5.214,2.297-5.214,5.128C33.032,26.331,35.367,28.626,38.246,28.626z"/>
			</defs>
			<clipPath id="SVGID_18_">
				<use xlink:href="#SVGID_17_"  overflow="visible"/>
			</clipPath>
			<g clip-path="url(#SVGID_18_)">
				<defs>
					<rect id="SVGID_19_" x="-0.251" y="0.5" width="75.25" height="75.25"/>
				</defs>
				<clipPath id="SVGID_20_">
					<use xlink:href="#SVGID_19_"  overflow="visible"/>
				</clipPath>
				<rect x="22.282" y="7.623" clip-path="url(#SVGID_20_)" fill="#9B9B9B" width="31.93" height="31.753"/>
			</g>
		</g>
	</g>
</g>
</svg>
