<?xml version="1.0" encoding="utf-8"?>
<!-- Generator: Adobe Illustrator 16.0.0, SVG Export Plug-In . SVG Version: 6.00 Build 0)  -->
<!DOCTYPE svg PUBLIC "-//W3C//DTD SVG 1.1//EN" "http://www.w3.org/Graphics/SVG/1.1/DTD/svg11.dtd">
<svg version="1.1" id="Calque_1" xmlns="http://www.w3.org/2000/svg" xmlns:xlink="http://www.w3.org/1999/xlink" x="0px" y="0px"
	 width="75px" height="75px" viewBox="0 0 75 75" enable-background="new 0 0 75 75" xml:space="preserve">
<g enable-background="new    ">
	<g>
		<defs>
			<rect id="SVGID_1_" x="0.5" y="0.5" width="74" height="74"/>
		</defs>
		<clipPath id="SVGID_2_">
			<use xlink:href="#SVGID_1_"  overflow="visible"/>
		</clipPath>
		<g clip-path="url(#SVGID_2_)">
			<defs>
				<path id="SVGID_3_" d="M0.577,37.539c0,20.371,16.515,36.884,36.886,36.884c20.372,0,36.886-16.513,36.886-36.884
					c0-20.372-16.514-36.887-36.886-36.887C17.092,0.652,0.577,17.167,0.577,37.539"/>
			</defs>
			<clipPath id="SVGID_4_">
				<use xlink:href="#SVGID_3_"  overflow="visible"/>
			</clipPath>
			<g clip-path="url(#SVGID_4_)">
				<defs>
					<rect id="SVGID_5_" x="0.5" y="0.5" width="74" height="74"/>
				</defs>
				<clipPath id="SVGID_6_">
					<use xlink:href="#SVGID_5_"  overflow="visible"/>
				</clipPath>
				<g clip-path="url(#SVGID_6_)" enable-background="new    ">
					<g>
						<defs>
							<rect id="SVGID_7_" x="0.5" y="0.5" width="74" height="74"/>
						</defs>
						<clipPath id="SVGID_8_">
							<use xlink:href="#SVGID_7_"  overflow="visible"/>
						</clipPath>
						<g clip-path="url(#SVGID_8_)">
							<defs>
								<path id="SVGID_9_" d="M37.463,0.652c20.372,0,36.886,16.515,36.886,36.886c0,20.372-16.514,36.885-36.886,36.885
									S0.577,57.91,0.577,37.538C0.577,17.167,17.091,0.652,37.463,0.652"/>
							</defs>
							<clipPath id="SVGID_10_">
								<use xlink:href="#SVGID_9_"  overflow="visible"/>
							</clipPath>
							<g clip-path="url(#SVGID_10_)">
								<defs>
									<rect id="SVGID_11_" x="0.5" y="0.5" width="74" height="74"/>
								</defs>
								<clipPath id="SVGID_12_">
									<use xlink:href="#SVGID_11_"  overflow="visible"/>
								</clipPath>
								<rect x="-4.423" y="-4.348" clip-path="url(#SVGID_12_)" fill="#FFFFFF" width="83.772" height="83.771"/>
							</g>
						</g>
					</g>
				</g>
			</g>
		</g>
		<g clip-path="url(#SVGID_2_)">
			<defs>
				<circle id="SVGID_13_" cx="37.463" cy="37.537" r="36.885"/>
			</defs>
			<clipPath id="SVGID_14_">
				<use xlink:href="#SVGID_13_"  overflow="visible"/>
			</clipPath>
			<g clip-path="url(#SVGID_14_)">
				<defs>
					<rect id="SVGID_15_" x="0.5" y="0.5" width="74" height="74"/>
				</defs>
				<clipPath id="SVGID_16_">
					<use xlink:href="#SVGID_15_"  overflow="visible"/>
				</clipPath>
				<g clip-path="url(#SVGID_16_)" enable-background="new    ">
					<g>
						<defs>
							<rect id="SVGID_17_" x="0.5" y="0.5" width="74" height="74"/>
						</defs>
						<clipPath id="SVGID_18_">
							<use xlink:href="#SVGID_17_"  overflow="visible"/>
						</clipPath>
						<g clip-path="url(#SVGID_18_)">
							<defs>
								<rect id="SVGID_19_" x="0.5" y="0.5" width="74" height="74"/>
							</defs>
							<clipPath id="SVGID_20_">
								<use xlink:href="#SVGID_19_"  overflow="visible"/>
							</clipPath>
							
								<circle clip-path="url(#SVGID_20_)" fill="none" stroke="#50E3C2" stroke-width="2" stroke-miterlimit="10" cx="37.463" cy="37.538" r="36.885"/>
						</g>
					</g>
				</g>
			</g>
		</g>
		<g clip-path="url(#SVGID_2_)">
			<defs>
				<path id="SVGID_21_" d="M32.452,29.163c-0.496,0-0.972,0.205-1.308,0.562c-0.336,0.356-0.506,0.837-0.469,1.322l0.822,10.49
					c0.035,0.448,0.244,0.863,0.583,1.164l1.873,1.662v10.607c0,0.965,0.796,1.748,1.778,1.748h0.779
					c0.83,0,1.528-0.557,1.725-1.313c0.197,0.757,0.896,1.313,1.726,1.313h0.779c0.982,0,1.778-0.783,1.778-1.748V44.363
					l1.871-1.662c0.342-0.301,0.552-0.717,0.583-1.164l0.822-10.491c0.037-0.484-0.133-0.966-0.47-1.322
					c-0.333-0.358-0.811-0.561-1.305-0.561H32.452z"/>
			</defs>
			<clipPath id="SVGID_22_">
				<use xlink:href="#SVGID_21_"  overflow="visible"/>
			</clipPath>
			<g clip-path="url(#SVGID_22_)">
				<defs>
					<rect id="SVGID_23_" x="0.5" y="0.5" width="74" height="74"/>
				</defs>
				<clipPath id="SVGID_24_">
					<use xlink:href="#SVGID_23_"  overflow="visible"/>
				</clipPath>
				<g clip-path="url(#SVGID_24_)" enable-background="new    ">
					<g>
						<defs>
							<rect id="SVGID_25_" x="30.5" y="28.5" width="16" height="29"/>
						</defs>
						<clipPath id="SVGID_26_">
							<use xlink:href="#SVGID_25_"  overflow="visible"/>
						</clipPath>
						<g clip-path="url(#SVGID_26_)">
							<defs>
								<rect id="SVGID_27_" x="19.92" y="18.413" width="36.632" height="49.054"/>
							</defs>
							<clipPath id="SVGID_28_">
								<use xlink:href="#SVGID_27_"  overflow="visible"/>
							</clipPath>
							<g clip-path="url(#SVGID_28_)">
								<defs>
									<rect id="SVGID_29_" x="30.5" y="28.5" width="16" height="29"/>
								</defs>
								<clipPath id="SVGID_30_">
									<use xlink:href="#SVGID_29_"  overflow="visible"/>
								</clipPath>
								<rect x="14.92" y="13.413" clip-path="url(#SVGID_30_)" fill="#50E3C2" width="46.632" height="59.054"/>
							</g>
						</g>
					</g>
				</g>
			</g>
		</g>
		<g clip-path="url(#SVGID_2_)">
			<defs>
				<ellipse id="SVGID_31_" cx="38.243" cy="23.482" rx="5.216" ry="5.124"/>
			</defs>
			<clipPath id="SVGID_32_">
				<use xlink:href="#SVGID_31_"  overflow="visible"/>
			</clipPath>
			<g clip-path="url(#SVGID_32_)">
				<defs>
					<rect id="SVGID_33_" x="0.5" y="0.5" width="74" height="74"/>
				</defs>
				<clipPath id="SVGID_34_">
					<use xlink:href="#SVGID_33_"  overflow="visible"/>
				</clipPath>
				<g clip-path="url(#SVGID_34_)" enable-background="new    ">
					<g>
						<defs>
							<rect id="SVGID_35_" x="32.5" y="17.5" width="11" height="12"/>
						</defs>
						<clipPath id="SVGID_36_">
							<use xlink:href="#SVGID_35_"  overflow="visible"/>
						</clipPath>
						<g clip-path="url(#SVGID_36_)">
							<defs>
								<rect id="SVGID_37_" x="22.277" y="7.604" width="31.93" height="31.753"/>
							</defs>
							<clipPath id="SVGID_38_">
								<use xlink:href="#SVGID_37_"  overflow="visible"/>
							</clipPath>
							<g clip-path="url(#SVGID_38_)">
								<defs>
									<rect id="SVGID_39_" x="32.5" y="17.5" width="11" height="12"/>
								</defs>
								<clipPath id="SVGID_40_">
									<use xlink:href="#SVGID_39_"  overflow="visible"/>
								</clipPath>
								<rect x="17.277" y="2.604" clip-path="url(#SVGID_40_)" fill="#50E3C2" width="41.93" height="41.753"/>
							</g>
						</g>
					</g>
				</g>
			</g>
		</g>
	</g>
</g>
</svg>
