<?xml version="1.0" encoding="utf-8"?>
<!-- Generator: Adobe Illustrator 16.0.0, SVG Export Plug-In . SVG Version: 6.00 Build 0)  -->
<!DOCTYPE svg PUBLIC "-//W3C//DTD SVG 1.1//EN" "http://www.w3.org/Graphics/SVG/1.1/DTD/svg11.dtd">
<svg version="1.1" id="Calque_1" xmlns="http://www.w3.org/2000/svg" xmlns:xlink="http://www.w3.org/1999/xlink" x="0px" y="0px"
	 width="75px" height="75px" viewBox="0 0 75 75" enable-background="new 0 0 75 75" xml:space="preserve">
<g enable-background="new    ">
	<g>
		<defs>
			<rect id="SVGID_1_" x="-0.999" width="75.583" height="75.583"/>
		</defs>
		<clipPath id="SVGID_2_">
			<use xlink:href="#SVGID_1_"  overflow="visible"/>
		</clipPath>
		<g clip-path="url(#SVGID_2_)">
			<defs>
				<path id="SVGID_3_" d="M37.677,73.193c-19.764,0-35.79-16.103-35.79-35.969c0-19.868,16.026-35.972,35.79-35.972
					c19.765,0,35.788,16.104,35.788,35.972C73.465,57.091,57.442,73.193,37.677,73.193z M37.677,75.353
					c20.96,0,37.949-17.07,37.949-38.128c0-21.059-16.988-38.131-37.949-38.131c-20.96,0-37.95,17.072-37.95,38.131
					C-0.273,58.282,16.717,75.353,37.677,75.353z M-43.463-44.098h162.281v162.642H-43.463V-44.098z"/>
			</defs>
			<clipPath id="SVGID_4_">
				<use xlink:href="#SVGID_3_"  overflow="visible"/>
			</clipPath>
			<g clip-path="url(#SVGID_4_)">
				<defs>
					<ellipse id="SVGID_5_" cx="37.677" cy="37.224" rx="36.869" ry="37.051"/>
				</defs>
				<clipPath id="SVGID_6_">
					<use xlink:href="#SVGID_5_"  overflow="visible"/>
				</clipPath>
				<g clip-path="url(#SVGID_6_)">
					<defs>
						<rect id="SVGID_7_" x="-0.999" width="75.583" height="75.583"/>
					</defs>
					<clipPath id="SVGID_8_">
						<use xlink:href="#SVGID_7_"  overflow="visible"/>
					</clipPath>
					
						<ellipse clip-path="url(#SVGID_8_)" fill-rule="evenodd" clip-rule="evenodd" fill="#FFFFFF" cx="37.677" cy="37.224" rx="36.869" ry="37.051"/>
				</g>
			</g>
		</g>
		<g clip-path="url(#SVGID_2_)">
			<defs>
				<ellipse id="SVGID_9_" cx="37.677" cy="37.224" rx="36.869" ry="37.051"/>
			</defs>
			<clipPath id="SVGID_10_">
				<use xlink:href="#SVGID_9_"  overflow="visible"/>
			</clipPath>
			<g clip-path="url(#SVGID_10_)">
				<defs>
					<rect id="SVGID_11_" x="-0.999" width="75.583" height="75.583"/>
				</defs>
				<clipPath id="SVGID_12_">
					<use xlink:href="#SVGID_11_"  overflow="visible"/>
				</clipPath>
				
					<ellipse clip-path="url(#SVGID_12_)" fill="none" stroke="#9B9B9B" stroke-width="2" stroke-miterlimit="10" cx="37.677" cy="37.224" rx="36.869" ry="37.051"/>
			</g>
		</g>
		<g clip-path="url(#SVGID_2_)">
			<defs>
				<path id="SVGID_13_" d="M46.17,38.207l0.585-7.505c0.037-0.488-0.133-0.97-0.468-1.329c-0.34-0.359-0.811-0.563-1.307-0.563
					H33.416c-0.496,0-0.969,0.205-1.307,0.563c-0.336,0.358-0.506,0.841-0.467,1.329l0.583,7.508L30.42,48.719
					c-0.042,0.298,0.049,0.6,0.248,0.828c0.2,0.226,0.491,0.355,0.794,0.355h3.454v4.829c0,0.969,0.798,1.756,1.78,1.756h0.779
					c0.829,0,1.526-0.562,1.724-1.322c0.196,0.761,0.893,1.322,1.722,1.322h0.779c0.983,0,1.779-0.787,1.779-1.756v-4.829h3.454
					c0.584,0,1.055-0.463,1.055-1.036c0-0.075-0.008-0.147-0.022-0.216L46.17,38.207z"/>
			</defs>
			<clipPath id="SVGID_14_">
				<use xlink:href="#SVGID_13_"  overflow="visible"/>
			</clipPath>
			<g clip-path="url(#SVGID_14_)">
				<defs>
					<rect id="SVGID_15_" x="-0.999" width="75.583" height="75.583"/>
				</defs>
				<clipPath id="SVGID_16_">
					<use xlink:href="#SVGID_15_"  overflow="visible"/>
				</clipPath>
				<rect x="19.613" y="18.012" clip-path="url(#SVGID_16_)" fill="#9B9B9B" width="39.171" height="49.271"/>
			</g>
		</g>
		<g clip-path="url(#SVGID_2_)">
			<defs>
				<ellipse id="SVGID_17_" cx="39.212" cy="23.102" rx="5.213" ry="5.149"/>
			</defs>
			<clipPath id="SVGID_18_">
				<use xlink:href="#SVGID_17_"  overflow="visible"/>
			</clipPath>
			<g clip-path="url(#SVGID_18_)">
				<defs>
					<rect id="SVGID_19_" x="-0.999" width="75.583" height="75.583"/>
				</defs>
				<clipPath id="SVGID_20_">
					<use xlink:href="#SVGID_19_"  overflow="visible"/>
				</clipPath>
				<rect x="23.201" y="7.155" clip-path="url(#SVGID_20_)" fill="#9B9B9B" width="32.022" height="31.893"/>
			</g>
		</g>
	</g>
</g>
</svg>
