<?xml version="1.0" encoding="utf-8"?>
<!-- Generator: Adobe Illustrator 16.0.0, SVG Export Plug-In . SVG Version: 6.00 Build 0)  -->
<!DOCTYPE svg PUBLIC "-//W3C//DTD SVG 1.1//EN" "http://www.w3.org/Graphics/SVG/1.1/DTD/svg11.dtd">
<svg version="1.1" id="Calque_1" xmlns="http://www.w3.org/2000/svg" xmlns:xlink="http://www.w3.org/1999/xlink" x="0px" y="0px"
	 width="75px" height="75px" viewBox="0 0 75 75" enable-background="new 0 0 75 75" xml:space="preserve">
<g enable-background="new    ">
	<g>
		<defs>
			<rect id="SVGID_1_" x="0.625" y="-0.379" width="74" height="75"/>
		</defs>
		<clipPath id="SVGID_2_">
			<use xlink:href="#SVGID_1_"  overflow="visible"/>
		</clipPath>
		<g clip-path="url(#SVGID_2_)">
			<defs>
				<path id="SVGID_3_" d="M0.896,37.301c0,20.463,16.506,37.053,36.867,37.053c20.363,0,36.87-16.59,36.87-37.053
					S58.127,0.25,37.764,0.25C17.402,0.25,0.896,16.838,0.896,37.301"/>
			</defs>
			<clipPath id="SVGID_4_">
				<use xlink:href="#SVGID_3_"  overflow="visible"/>
			</clipPath>
			<g clip-path="url(#SVGID_4_)">
				<defs>
					<rect id="SVGID_5_" x="0.625" y="-0.379" width="74" height="75"/>
				</defs>
				<clipPath id="SVGID_6_">
					<use xlink:href="#SVGID_5_"  overflow="visible"/>
				</clipPath>
				<g clip-path="url(#SVGID_6_)" enable-background="new    ">
					<g>
						<defs>
							<rect id="SVGID_7_" x="0.625" y="-0.379" width="74" height="75"/>
						</defs>
						<clipPath id="SVGID_8_">
							<use xlink:href="#SVGID_7_"  overflow="visible"/>
						</clipPath>
						<g clip-path="url(#SVGID_8_)">
							<defs>
								<path id="SVGID_9_" d="M37.765,0.25c20.362,0,36.869,16.588,36.869,37.051S58.127,74.353,37.765,74.353
									S0.896,57.764,0.896,37.301S17.402,0.25,37.765,0.25"/>
							</defs>
							<clipPath id="SVGID_10_">
								<use xlink:href="#SVGID_9_"  overflow="visible"/>
							</clipPath>
							<g clip-path="url(#SVGID_10_)">
								<defs>
									<rect id="SVGID_11_" x="0.625" y="-0.379" width="74" height="75"/>
								</defs>
								<clipPath id="SVGID_12_">
									<use xlink:href="#SVGID_11_"  overflow="visible"/>
								</clipPath>
								<rect x="-4.104" y="-4.75" clip-path="url(#SVGID_12_)" fill="#FFFFFF" width="83.738" height="84.103"/>
							</g>
						</g>
					</g>
				</g>
			</g>
		</g>
		<g clip-path="url(#SVGID_2_)">
			<defs>
				<ellipse id="SVGID_13_" cx="37.765" cy="37.301" rx="36.869" ry="37.053"/>
			</defs>
			<clipPath id="SVGID_14_">
				<use xlink:href="#SVGID_13_"  overflow="visible"/>
			</clipPath>
			<g clip-path="url(#SVGID_14_)">
				<defs>
					<rect id="SVGID_15_" x="0.625" y="-0.379" width="74" height="75"/>
				</defs>
				<clipPath id="SVGID_16_">
					<use xlink:href="#SVGID_15_"  overflow="visible"/>
				</clipPath>
				<g clip-path="url(#SVGID_16_)" enable-background="new    ">
					<g>
						<defs>
							<rect id="SVGID_17_" x="0.625" y="-0.379" width="74" height="75"/>
						</defs>
						<clipPath id="SVGID_18_">
							<use xlink:href="#SVGID_17_"  overflow="visible"/>
						</clipPath>
						<g clip-path="url(#SVGID_18_)">
							<defs>
								<rect id="SVGID_19_" x="0.625" y="-0.379" width="74" height="75"/>
							</defs>
							<clipPath id="SVGID_20_">
								<use xlink:href="#SVGID_19_"  overflow="visible"/>
							</clipPath>
							
								<ellipse clip-path="url(#SVGID_20_)" fill="none" stroke="#50E3C2" stroke-width="2" stroke-miterlimit="10" cx="37.765" cy="37.301" rx="36.869" ry="37.051"/>
						</g>
					</g>
				</g>
			</g>
		</g>
		<g clip-path="url(#SVGID_2_)">
			<defs>
				<path id="SVGID_21_" d="M33.504,28.887c-0.496,0-0.969,0.207-1.307,0.563c-0.336,0.358-0.506,0.84-0.467,1.329l0.582,7.508
					l-1.805,10.508c-0.043,0.299,0.049,0.602,0.248,0.829c0.2,0.226,0.491,0.356,0.794,0.356h3.454v4.826
					c0,0.972,0.798,1.757,1.78,1.757h0.778c0.83,0,1.526-0.562,1.725-1.321c0.196,0.761,0.893,1.321,1.722,1.321h0.779
					c0.983,0,1.779-0.785,1.779-1.757V49.98h3.455c0.583,0,1.054-0.465,1.054-1.037c0-0.075-0.007-0.148-0.023-0.216l-1.795-10.443
					l0.585-7.505c0.037-0.489-0.133-0.971-0.468-1.329c-0.339-0.358-0.81-0.563-1.307-0.563H33.504z"/>
			</defs>
			<clipPath id="SVGID_22_">
				<use xlink:href="#SVGID_21_"  overflow="visible"/>
			</clipPath>
			<g clip-path="url(#SVGID_22_)">
				<defs>
					<rect id="SVGID_23_" x="0.625" y="-0.379" width="74" height="75"/>
				</defs>
				<clipPath id="SVGID_24_">
					<use xlink:href="#SVGID_23_"  overflow="visible"/>
				</clipPath>
				<g clip-path="url(#SVGID_24_)" enable-background="new    ">
					<g>
						<defs>
							<rect id="SVGID_25_" x="29.625" y="28.621" width="19" height="28"/>
						</defs>
						<clipPath id="SVGID_26_">
							<use xlink:href="#SVGID_25_"  overflow="visible"/>
						</clipPath>
						<g clip-path="url(#SVGID_26_)">
							<defs>
								<rect id="SVGID_27_" x="19.701" y="18.089" width="39.171" height="49.271"/>
							</defs>
							<clipPath id="SVGID_28_">
								<use xlink:href="#SVGID_27_"  overflow="visible"/>
							</clipPath>
							<g clip-path="url(#SVGID_28_)">
								<defs>
									<rect id="SVGID_29_" x="29.625" y="28.621" width="19" height="28"/>
								</defs>
								<clipPath id="SVGID_30_">
									<use xlink:href="#SVGID_29_"  overflow="visible"/>
								</clipPath>
								<rect x="14.701" y="13.089" clip-path="url(#SVGID_30_)" fill="#50E3C2" width="49.171" height="59.271"/>
							</g>
						</g>
					</g>
				</g>
			</g>
		</g>
		<g clip-path="url(#SVGID_2_)">
			<defs>
				<ellipse id="SVGID_31_" cx="39.3" cy="23.18" rx="5.213" ry="5.148"/>
			</defs>
			<clipPath id="SVGID_32_">
				<use xlink:href="#SVGID_31_"  overflow="visible"/>
			</clipPath>
			<g clip-path="url(#SVGID_32_)">
				<defs>
					<rect id="SVGID_33_" x="0.625" y="-0.379" width="74" height="75"/>
				</defs>
				<clipPath id="SVGID_34_">
					<use xlink:href="#SVGID_33_"  overflow="visible"/>
				</clipPath>
				<g clip-path="url(#SVGID_34_)" enable-background="new    ">
					<g>
						<defs>
							<rect id="SVGID_35_" x="33.625" y="17.621" width="11" height="11"/>
						</defs>
						<clipPath id="SVGID_36_">
							<use xlink:href="#SVGID_35_"  overflow="visible"/>
						</clipPath>
						<g clip-path="url(#SVGID_36_)">
							<defs>
								<rect id="SVGID_37_" x="23.289" y="7.232" width="32.021" height="31.893"/>
							</defs>
							<clipPath id="SVGID_38_">
								<use xlink:href="#SVGID_37_"  overflow="visible"/>
							</clipPath>
							<g clip-path="url(#SVGID_38_)">
								<defs>
									<rect id="SVGID_39_" x="33.625" y="17.621" width="11" height="11"/>
								</defs>
								<clipPath id="SVGID_40_">
									<use xlink:href="#SVGID_39_"  overflow="visible"/>
								</clipPath>
								<rect x="18.289" y="2.232" clip-path="url(#SVGID_40_)" fill="#50E3C2" width="42.021" height="41.893"/>
							</g>
						</g>
					</g>
				</g>
			</g>
		</g>
	</g>
</g>
</svg>
